<svg id="Layer_1" data-name="Layer 1" xmlns="http://www.w3.org/2000/svg" viewBox="0 0 69.25 69.25">
    <defs>
        <style>
            .cls-1 {
                fill: #FF3B3F;
            }
        </style>
    </defs>
    <title>githublogo</title>
    <g id="Group_37" data-name="Group 37">
        <g id="Group_36" data-name="Group 36">
            <path id="Path_33" data-name="Path 33" class="cls-1"
                d="M33.15,0h3l.2,0c.6,0,1.18.06,1.78.11,1,.08,1.93.2,2.88.37a32.9,32.9,0,0,1,9.06,3,35.37,35.37,0,0,1,8.44,6A37.11,37.11,0,0,1,61.75,13a34,34,0,0,1,3.74,5.63,31.08,31.08,0,0,1,2.4,5.93,31.86,31.86,0,0,1,1.32,8.23,1.35,1.35,0,0,0,0,.28v3a1,1,0,0,0,0,.29c0,.45,0,.9,0,1.35-.09,1.09-.23,2.18-.42,3.26a32.36,32.36,0,0,1-4.42,11.61,37.1,37.1,0,0,1-6.51,7.73,34.75,34.75,0,0,1-4.94,3.78,31.74,31.74,0,0,1-8,3.65,33.87,33.87,0,0,1-7.47,1.35,1.86,1.86,0,0,0-.62.08H32.52a.57.57,0,0,0-.22,0l-1.75-.16a35.68,35.68,0,0,1-3.86-.63A32.29,32.29,0,0,1,16,63.94a36.94,36.94,0,0,1-7.31-6.3,34.11,34.11,0,0,1-4.39-6,32.55,32.55,0,0,1-2.91-6.79A34.27,34.27,0,0,1,.09,37.38,1.49,1.49,0,0,0,0,36.79V32.46a.63.63,0,0,0,.06-.27c.06-.7.12-1.4.2-2.1A33.44,33.44,0,0,1,2,22.59a31.5,31.5,0,0,1,2.35-5A34.49,34.49,0,0,1,9.3,11,37.82,37.82,0,0,1,14,6.76,33.56,33.56,0,0,1,21.39,2.5,32.42,32.42,0,0,1,28,.57,33.81,33.81,0,0,1,32.91,0,.5.5,0,0,0,33.15,0ZM65.38,34.43a26.45,26.45,0,0,0-.11-2.7,30.18,30.18,0,0,0-.75-4.63,28.67,28.67,0,0,0-3.24-7.92,32.37,32.37,0,0,0-4-5.35c-.65-.72-1.35-1.39-2.07-2.05A31.49,31.49,0,0,0,50,8a29.2,29.2,0,0,0-6-2.69A30,30,0,0,0,36.3,3.9,33.18,33.18,0,0,0,31.12,4c-1.11.13-2.21.3-3.3.53a28.53,28.53,0,0,0-9.41,3.88,32.83,32.83,0,0,0-6.18,5.16A36,36,0,0,0,9.38,17a29.26,29.26,0,0,0-3.13,5.53A30.07,30.07,0,0,0,3.87,33.63c0,.82,0,1.63,0,2.45a31.2,31.2,0,0,0,.37,3.73,28.73,28.73,0,0,0,2.45,7.93A30.85,30.85,0,0,0,12,55.45a33.81,33.81,0,0,0,4.91,4.35A29.16,29.16,0,0,0,24,63.59a29.76,29.76,0,0,0,8.9,1.77,32.12,32.12,0,0,0,4.6-.09c1-.1,2-.22,3-.41a28.13,28.13,0,0,0,8.8-3.17A33.18,33.18,0,0,0,60.68,51.05a28.54,28.54,0,0,0,3.57-7.87A31.19,31.19,0,0,0,65.38,34.43Z" />
            <path id="Path_34" data-name="Path 34" class="cls-1"
                d="M39.66,42.24c.37.26.75.47,1.1.71A6.79,6.79,0,0,1,42.07,44,4.31,4.31,0,0,1,43,45.68a6.41,6.41,0,0,1,.33,2.13c0,1,0,1.94,0,2.91s0,1.86.09,2.79c0,.37,0,.75,0,1.12s0,.64,0,.95a.64.64,0,0,0,.14.35,5,5,0,0,0,1.6,1.5l.22.14a.5.5,0,0,1,.13.7.6.6,0,0,1-.21.18,1.43,1.43,0,0,1-.61.14,5,5,0,0,1-3.18-.9,2.66,2.66,0,0,1-1.17-2.29V48.77a2.28,2.28,0,0,0-.23-1.06,2.1,2.1,0,0,0-1.11-.92c-.12,0-.16,0-.18.13v8.65a8,8,0,0,0,.18,1.69,2.29,2.29,0,0,0,.45,1,3.16,3.16,0,0,1,.55,1.1c.08.28,0,.37-.27.4h-.29a6.28,6.28,0,0,1-2.06-.7,3,3,0,0,1-1.18-1.27,6.82,6.82,0,0,1-.7-2.65c-.08-1.45,0-2.89,0-4.33,0-1.28,0-2.57,0-3.86v-.26c0-.32,0-.35-.34-.36h-1c-.23,0-.26,0-.27.28a2.81,2.81,0,0,0,0,.29v8a6.81,6.81,0,0,1-.66,2.91,3.35,3.35,0,0,1-2,1.77,5.87,5.87,0,0,1-1.37.29.76.76,0,0,1-.47-.1c-.18-.1-.2-.17-.09-.35s.29-.5.44-.74a5.62,5.62,0,0,0,.76-2.46,11.32,11.32,0,0,0,.06-1.43V47.09c0-.35,0-.38-.36-.2a1.75,1.75,0,0,0-1,1.42,8.69,8.69,0,0,0-.05.89v6.2a4.89,4.89,0,0,1,0,.54,2.78,2.78,0,0,1-1.42,2,4.2,4.2,0,0,1-1.84.62,4,4,0,0,1-1.38,0,.87.87,0,0,1-.43-.21.47.47,0,0,1-.05-.67l.05,0a4.14,4.14,0,0,1,.66-.51c.16-.12.33-.24.48-.37a2.78,2.78,0,0,0,1-1.9,11.65,11.65,0,0,0,0-2c0-.51-.09-1-.1-1.52a7.64,7.64,0,0,1,0-1.07c0-.24,0-.28-.29-.21a7.44,7.44,0,0,1-1.93.28,7.65,7.65,0,0,1-3.13-.67,11.19,11.19,0,0,1-1.53-.81,3.73,3.73,0,0,1-1-1,13.38,13.38,0,0,1-1.28-2A9.29,9.29,0,0,0,15.52,44a17.39,17.39,0,0,0-1.83-1.71c-.52-.43-.29-.73.05-1a1.64,1.64,0,0,1,1.16-.23,3.85,3.85,0,0,1,2.25,1.19c.46.48.9,1,1.31,1.5a9.82,9.82,0,0,0,2,1.87,5.58,5.58,0,0,0,2.1.89,4.72,4.72,0,0,0,2.84-.42l.33-.17a1.61,1.61,0,0,0,.83-.89,3.93,3.93,0,0,1,2.1-2.19c.43-.2.87-.38,1.35-.59a.6.6,0,0,0-.29-.08,26.36,26.36,0,0,1-5.5-1.07,13.94,13.94,0,0,1-4.79-2.59,8.54,8.54,0,0,1-2-2.4,12,12,0,0,1-1.4-4.24,18.29,18.29,0,0,1-.22-3,14.67,14.67,0,0,1,.75-4.56,10.38,10.38,0,0,1,1.52-2.77q.27-.36.57-.69a.51.51,0,0,0,.13-.55,9.29,9.29,0,0,1-.37-3.1,13.73,13.73,0,0,1,.6-3.49c.06-.19.11-.38.18-.57s.12-.28.38-.26a11.38,11.38,0,0,1,1.54.2,13.5,13.5,0,0,1,3.6,1.2,13.28,13.28,0,0,1,2.16,1.32.69.69,0,0,0,.66.14,27.63,27.63,0,0,1,6-.8c.35,0,.7,0,1.06,0a35.62,35.62,0,0,1,4.38.38c.65.1,1.29.21,1.93.35a.64.64,0,0,0,.54-.1,22,22,0,0,1,3-1.68A10.25,10.25,0,0,1,47.61,13c.35-.05.7-.08,1-.11s.47,0,.61.41a14.3,14.3,0,0,1,.61,3.1A11.68,11.68,0,0,1,49.73,20a.45.45,0,0,0,.14.41A10.6,10.6,0,0,1,52,23.76a14.13,14.13,0,0,1,.92,4.3c0,.47,0,.94,0,1.41a17.41,17.41,0,0,1-.83,5,9.52,9.52,0,0,1-2.47,3.91,14,14,0,0,1-3,2.14,14.37,14.37,0,0,1-4.2,1.37c-.87.16-1.74.24-2.62.33A.25.25,0,0,0,39.66,42.24Z" />
        </g>
    </g>
</svg>