<svg id="Layer_1" data-name="Layer 1" xmlns="http://www.w3.org/2000/svg" viewBox="0 0 70.25 70.25">
    <defs>
        <style>
            .cls-1 {
                fill: #FF3B3F;
                stroke: #FF3B3F;
                stroke-width: 2;
            }
        </style>
    </defs>
    <title>linkedinlogo</title>
    <g id="Group_39" data-name="Group 39">
        <g id="Group_38" data-name="Group 38">
            <path id="Path_35" data-name="Path 35" class="cls-1"
                d="M5.5.5H64.7c.11,0,.22.07.33.09A6.19,6.19,0,0,1,69.75,6.3V63.93a6.15,6.15,0,0,1-5.81,5.82H6.3a3.66,3.66,0,0,1-.87-.08,6.27,6.27,0,0,1-4.93-5V5.5A6.36,6.36,0,0,1,5.5.5ZM35.14,67.36H63.38a3.88,3.88,0,0,0,2.79-1.14,4.86,4.86,0,0,0,1.32-3.89q0-26.49,0-53a22.47,22.47,0,0,0-.11-3,4.18,4.18,0,0,0-3-3.49,10.94,10.94,0,0,0-2.14-.21H9.35a24.34,24.34,0,0,0-3,.12A4,4,0,0,0,3,5.82,9.58,9.58,0,0,0,2.7,8q0,27.06,0,54.13a11.39,11.39,0,0,0,.11,1.54A3.92,3.92,0,0,0,7,67.37H35.14Z" />
            <path id="Path_36" data-name="Path 36" class="cls-1"
                d="M28.57,39.73V26.28c0-1.16.33-1.49,1.47-1.49h8.51c1,0,1.37.26,1.59,1.26.08.39.18.4.46.18a9.92,9.92,0,0,1,5.61-2,11.67,11.67,0,0,1,8.35,2.31,11.52,11.52,0,0,1,4,6.56A20.56,20.56,0,0,1,59.05,38c.06,5,0,10,0,14.93,0,1.45-.4,1.85-1.83,1.85H49.06c-1.26,0-1.7-.44-1.7-1.71V38a6.22,6.22,0,0,0-.55-2.55,3.15,3.15,0,0,0-3.76-1.59,4.08,4.08,0,0,0-2.92,3.84c.06,5,0,10.09,0,15.14,0,1.5-.37,1.87-1.87,1.87h-8.1c-1.29,0-1.6-.32-1.6-1.57Q28.57,46.44,28.57,39.73Zm2.39,0V51.49c0,.84,0,.86.89.86h5c.89,0,.91,0,.91-.9,0-4.64.06-9.28,0-13.92A6.22,6.22,0,0,1,44,31.36a6.61,6.61,0,0,1,1,.08,4.76,4.76,0,0,1,2.65,1.21,6.64,6.64,0,0,1,2.07,5c.06,4.64,0,9.28,0,13.92,0,.61.18.84.81.83,1.75,0,3.51,0,5.27,0,.84,0,.86,0,.86-.88,0-4.33,0-8.65,0-13A19.75,19.75,0,0,0,56,33a8.68,8.68,0,0,0-3.75-5.16,9.64,9.64,0,0,0-6.56-1.2A7.14,7.14,0,0,0,41.23,29c-.48.54-.88,1.13-1.32,1.7a1.19,1.19,0,0,1-1.49.45,1.11,1.11,0,0,1-.75-1.29,16.79,16.79,0,0,0,.1-1.88c0-.59-.2-.79-.79-.78-1.69,0-3.37,0-5.06,0-1,0-1,0-1,.93V39.73Z" />
            <path id="Path_37" data-name="Path 37" class="cls-1"
                d="M13.3,39.63V26.06c0-1.17.36-1.54,1.52-1.54h8.31c1.11,0,1.55.43,1.61,1.53,0,.27,0,.54,0,.81V53.14c0,1.18-.47,1.6-1.67,1.61H14.83c-1.17,0-1.53-.37-1.53-1.54Zm9.05,0c0-4,0-7.92,0-11.89,0-.65-.22-.86-.86-.85-1.69,0-3.38,0-5.07,0-.55,0-.76.18-.76.74q0,12,0,24c0,.56.2.76.75.75,1.67,0,3.34,0,5,0,.9,0,.92,0,.92-.9,0-3.94,0-7.87,0-11.82Z" />
            <path id="Path_38" data-name="Path 38" class="cls-1"
                d="M18.92,23.12a6,6,0,0,1-1.42-11.8l.57-.08a7.24,7.24,0,0,1,4.29.74,6.08,6.08,0,0,1,2,8.38,5.21,5.21,0,0,1-.56.77A5.88,5.88,0,0,1,18.92,23.12Zm0-2.39h.47a3.52,3.52,0,0,0,3.44-3.59c0-.12,0-.24,0-.35-.43-3.26-4.17-4-6.35-2.4a3.44,3.44,0,0,0-1.11,4A3.5,3.5,0,0,0,19,20.73Z" />
        </g>
    </g>
</svg>