<svg id="Layer_1" data-name="Layer 1" xmlns="http://www.w3.org/2000/svg" viewBox="0 0 1766.14 641.95">
    <defs>
        <style>
            .cls-1 {
                fill: #ce7a7a;
            }

            .cls-2 {
                fill: #ffdede;
            }

            .cls-3 {
                fill: #282828;
            }

            .cls-4 {
                fill: #b15f5f;
            }

            .cls-5 {
                fill: #e5acac;
            }

            .cls-6 {
                fill: #b1d6de;
            }

            .cls-7 {
                fill: #fafdff;
            }
        </style>
    </defs>
    <title>mountains</title>
    <g id="mountains">
        <g id="middle-mountain">
            <path id="Path_21" data-name="Path 21" class="cls-1"
                d="M474,665h801S1073,297.84,1011.57,170C987,118.83,952,74.18,875,69.18S741.58,164,741.58,164Z"
                transform="translate(0 -23)" />
            <circle id="Ellipse_17" data-name="Ellipse 17" class="cls-2" cx="794" cy="183.07" r="22.5" />
            <circle id="Ellipse_18" data-name="Ellipse 18" class="cls-2" cx="955" cy="183.07" r="22.5" />
            <path id="Path_22" data-name="Path 22" class="cls-3"
                d="M892.3,235.82A15.82,15.82,0,1,1,866,224h0a16.39,16.39,0,0,1,1.54-1.21,15.74,15.74,0,0,1,7.89-2.72h.19l.73,0h.36a15.85,15.85,0,0,1,8.47,2.59l.31.22A15.79,15.79,0,0,1,892.3,235.82Z"
                transform="translate(0 -23)" />
            <ellipse id="Ellipse_20" data-name="Ellipse 20" class="cls-3" cx="876.5" cy="183.07" rx="3.95" ry="2.41" />
            <path id="Path_25" data-name="Path 25" class="cls-2"
                d="M885,222.28c-.87,3.71-2.4,6.16-4.14,6.16-2.15,0-4-3.75-4.64-9a15.85,15.85,0,0,1,8.47,2.59Z"
                transform="translate(0 -23)" />
            <path id="Path_25-2" data-name="Path 25" class="cls-2"
                d="M867.54,222.06a15.85,15.85,0,0,1,8.47-2.59c-.66,5.22-2.49,9-4.64,9-1.74,0-3.27-2.45-4.14-6.16Z"
                transform="translate(0 -23)" />
        </g>
        <g id="left-mountain">
            <path id="Path_13" data-name="Path 13" class="cls-4"
                d="M0,664H801S626.57,470.6,542,368.9c-36.31-43.69-64-83.71-141-88.71s-146,90-146,90Z"
                transform="translate(0 -23)" />
            <circle id="Ellipse_7" data-name="Ellipse 7" class="cls-2" cx="318.5" cy="370.92" r="22.5" />
            <circle id="Ellipse_8" data-name="Ellipse 8" class="cls-2" cx="479.5" cy="370.92" r="22.5" />
            <path id="Path_14" data-name="Path 14" class="cls-3"
                d="M417.32,423.14A15.82,15.82,0,1,1,391,411.3v0a18.22,18.22,0,0,1,1.54-1.21,15.79,15.79,0,0,1,7.89-2.71l.19,0,.73,0h.36a15.85,15.85,0,0,1,8.47,2.59l.31.22A15.8,15.8,0,0,1,417.32,423.14Z"
                transform="translate(0 -23)" />
            <ellipse id="Ellipse_11" data-name="Ellipse 11" class="cls-3" cx="401" cy="370.92" rx="3.95" ry="2.41" />
            <path id="Path_15" data-name="Path 15" class="cls-2"
                d="M400.64,407.34l.73,0c-.67,5.23-2.5,9-4.65,9-1.75,0-3.29-2.49-4.16-6.23a15.79,15.79,0,0,1,7.89-2.71Z"
                transform="translate(0 -23)" />
            <path id="Path_16" data-name="Path 16" class="cls-2"
                d="M410.51,410.14c-.87,3.71-2.4,6.16-4.14,6.16-2.15,0-4-3.75-4.64-9a15.68,15.68,0,0,1,8.47,2.59Z"
                transform="translate(0 -23)" />
        </g>
        <g id="right-mountain">
            <path id="Path_17" data-name="Path 17" class="cls-5"
                d="M965.14,664.49h801s-207.77-276.57-316-418.2c-33.8-33.75-64.95-44.58-81.79-44.17C1297.67,202.06,1233.79,307,965.14,664.49Z"
                transform="translate(0 -23)" />
            <circle id="Ellipse_12" data-name="Ellipse 12" class="cls-2" cx="1285.14" cy="319.58" r="22.5" />
            <circle id="Ellipse_13" data-name="Ellipse 13" class="cls-2" cx="1446.14" cy="319.58" r="22.5" />
            <path id="Path_18" data-name="Path 18" class="cls-3"
                d="M1384,371.81a15.82,15.82,0,1,1-26.3-11.85h0a14.78,14.78,0,0,1,1.53-1.21,15.77,15.77,0,0,1,7.9-2.72h.19l.72,0h.36a15.72,15.72,0,0,1,8.47,2.59l.31.22A15.78,15.78,0,0,1,1384,371.81Z"
                transform="translate(0 -23)" />
            <ellipse id="Ellipse_16" data-name="Ellipse 16" class="cls-3" cx="1367.64" cy="319.58" rx="3.95"
                ry="2.41" />
            <path id="Path_19" data-name="Path 19" class="cls-2"
                d="M1367.28,356l.72,0c-.66,5.22-2.5,9-4.65,9-1.75,0-3.29-2.48-4.16-6.22a15.77,15.77,0,0,1,7.9-2.72Z"
                transform="translate(0 -23)" />
            <path id="Path_20" data-name="Path 20" class="cls-2"
                d="M1377.15,358.8c-.87,3.71-2.41,6.16-4.15,6.16-2.15,0-4-3.75-4.64-9a15.8,15.8,0,0,1,8.47,2.59Z"
                transform="translate(0 -23)" />
        </g>
    </g>
    <g id="right-cloud">
        <path id="Path_26" data-name="Path 26" class="cls-6"
            d="M883,123.71C883,98.1,926.56,76.52,985.9,70a17,17,0,0,1-.12-2c0-24.84,50.76-45,113.38-45,41.07,0,77,8.66,96.94,21.64,18.21-10,47.75-16.41,81.1-16.41,55.34,0,100.21,17.8,100.21,39.75,0,9.32-8.09,17.89-21.63,24.67,25.65,8.68,41.63,20.93,41.63,34.5,0,26.34-60.14,47.68-134.33,47.68-1,0-2,0-3.06,0-12.3,16.42-50.64,28.4-96,28.4-43.9,0-81.21-11.2-94.76-26.79a338,338,0,0,1-45.73,3C945.9,179.44,883,154.49,883,123.71"
            transform="translate(0 -23)" />
        <circle id="Ellipse_21" data-name="Ellipse 21" class="cls-7" cx="1066.74" cy="58.69" r="22.5" />
        <path id="Path_27" data-name="Path 27" class="cls-3"
            d="M1165.56,112.92a15.82,15.82,0,1,1-26.3-11.85h0a16.39,16.39,0,0,1,1.54-1.21,15.74,15.74,0,0,1,7.89-2.72h.19l.73,0h.36a15.85,15.85,0,0,1,8.47,2.59l.31.22A15.79,15.79,0,0,1,1165.56,112.92Z"
            transform="translate(0 -23)" />
        <ellipse id="Ellipse_25" data-name="Ellipse 25" class="cls-3" cx="1149.24" cy="60.69" rx="3.95" ry="2.41" />
        <path id="Path_28" data-name="Path 28" class="cls-7"
            d="M1148.88,97.12l.73,0c-.67,5.22-2.5,9-4.65,9-1.75,0-3.29-2.48-4.16-6.22a15.74,15.74,0,0,1,7.89-2.72Z"
            transform="translate(0 -23)" />
        <circle id="Ellipse_22" data-name="Ellipse 22" class="cls-7" cx="1227.74" cy="58.69" r="22.5" />
        <path id="Path_29" data-name="Path 29" class="cls-7"
            d="M1158.75,99.91c-.87,3.71-2.4,6.16-4.14,6.16-2.15,0-4-3.75-4.64-9a15.85,15.85,0,0,1,8.47,2.59Z"
            transform="translate(0 -23)" />
    </g>
    <g id="left-cloud">
        <path id="Path_30" data-name="Path 30" class="cls-6"
            d="M651.47,172.62c0,13.18-33.91,23.87-75.75,23.87-7,0-13.82-.3-20.27-.87-1.59,28.73-76.86,51.87-169.47,51.87-55.41,0-104.61-8.28-135.54-21.1-14.59,3.05-34.5,4.93-56.45,4.93-44.73,0-81-7.8-81-17.41,0-8.77,30.17-16,69.41-17.24-17.82-6.77-28.91-16.29-28.91-26.84,0-16.53,27.2-30.53,64.82-35.37a15.5,15.5,0,0,1-1.83-7.18c0-20.59,44-37.28,98.25-37.28,31.24,0,59.07,5.53,77.06,14.16A469,469,0,0,1,447.11,101c73.1,0,132.36,15.41,132.36,34.41,0,4.75-3.71,9.28-10.42,13.4q3.3-.09,6.67-.09c41.84,0,75.75,10.69,75.75,23.88"
            transform="translate(0 -23)" />
        <circle id="Ellipse_26" data-name="Ellipse 26" class="cls-7" cx="274.49" cy="141.51" r="22.5" />
        <circle id="Ellipse_27" data-name="Ellipse 27" class="cls-7" cx="435.49" cy="141.51" r="22.5" />
        <path id="Path_31" data-name="Path 31" class="cls-3"
            d="M373.31,193.74A15.82,15.82,0,1,1,347,181.89h0a14.89,14.89,0,0,1,1.54-1.21,15.74,15.74,0,0,1,7.89-2.72h.19l.73,0h.36a15.85,15.85,0,0,1,8.47,2.59l.31.22A15.77,15.77,0,0,1,373.31,193.74Z"
            transform="translate(0 -23)" />
        <ellipse id="Ellipse_30" data-name="Ellipse 30" class="cls-3" cx="356.99" cy="141.51" rx="3.95" ry="2.41" />
        <path id="Path_32" data-name="Path 32" class="cls-7"
            d="M366.5,180.73c-.87,3.71-2.4,6.16-4.14,6.16-2.15,0-4-3.75-4.64-9a15.85,15.85,0,0,1,8.47,2.59Z"
            transform="translate(0 -23)" />
    </g>
    <g id="middle-mountain-eyes">
        <circle id="right-eye" class="cls-3" cx="948.32" cy="180.4" r="15.82" />
        <path id="left-eye" class="cls-3"
            d="M803.14,203.66a15.82,15.82,0,1,1-15.82-15.82h0a15.82,15.82,0,0,1,15.82,15.82"
            transform="translate(0 -23)" />
    </g>
    <g id="left-mountain-eyes">
        <circle id="right-eye-2" data-name="right-eye" class="cls-3" cx="472.82" cy="368.25" r="15.82" />
        <circle id="left-eye-2" data-name="left-eye" class="cls-3" cx="311.82" cy="369.51" r="15.82" />
    </g>
    <g id="right-mountain-eyes">
        <circle id="right-eye-3" data-name="right-eye" class="cls-3" cx="1439.46" cy="316.91" r="15.82" />
        <circle id="left-eye-3" data-name="left-eye" class="cls-3" cx="1278.46" cy="317.17" r="15.82" />
    </g>
    <g id="left-cloud-eyes">
        <circle id="right-eye-4" data-name="right-eye" class="cls-3" cx="428.81" cy="138.84" r="15.82" />
        <circle id="left-eye-4" data-name="left-eye" class="cls-3" cx="267.81" cy="139.1" r="15.82" />
    </g>
    <g id="right-cloud-eyes">
        <circle id="left-eye-5" data-name="left-eye" class="cls-3" cx="1060.06" cy="58.28" r="15.82" />
        <circle id="righ-eye" class="cls-3" cx="1221.06" cy="58.03" r="15.82" />
    </g>
</svg>